<?xml version="1.0" standalone="no"?>
<!DOCTYPE svg PUBLIC "-//W3C//DTD SVG 20010904//EN"
 "http://www.w3.org/TR/2001/REC-SVG-20010904/DTD/svg10.dtd">
<svg version="1.0" xmlns="http://www.w3.org/2000/svg"
 width="293.000000pt" height="293.000000pt" viewBox="0 0 293.000000 293.000000"
 preserveAspectRatio="xMidYMid meet">
<metadata>
Created by potrace 1.14, written by Peter Selinger 2001-2017
</metadata>
<g transform="translate(0.000000,293.000000) scale(0.100000,-0.100000)"
fill="#000000" stroke="none">
<path d="M580 1950 l0 -700 120 0 c66 0 120 -2 120 -5 0 -3 -43 -91 -96 -197
-77 -154 -105 -201 -147 -242 -91 -91 -191 -122 -290 -91 -96 30 -153 94 -203
229 l-23 61 0 -46 c-1 -26 8 -76 19 -111 54 -176 225 -246 395 -162 119 58
228 194 374 467 l53 97 -36 0 c-20 0 -36 2 -36 5 0 3 16 41 36 83 20 42 81
176 136 297 143 315 262 554 321 643 146 219 324 327 575 347 45 4 82 11 82
16 0 5 -294 9 -700 9 l-700 0 0 -700z m420 470 l0 -80 80 0 81 0 -3 -72 -3
-73 -77 -3 -78 -3 0 -69 0 -70 -70 0 -70 0 0 70 0 69 -77 3 -78 3 -3 73 -3 72
81 0 80 0 0 80 0 80 70 0 70 0 0 -80z"/>
<path d="M1708 2536 c-181 -52 -286 -171 -453 -511 -79 -163 -345 -753 -345
-768 0 -4 133 -7 295 -7 l295 0 0 180 c0 228 12 216 -188 200 -155 -11 -167
-14 -199 -43 -29 -26 -29 -13 0 52 l23 52 422 -1 422 0 0 36 c0 31 -3 35 -17
28 -10 -4 -65 -9 -123 -12 -89 -3 -113 -1 -160 17 -106 40 -180 141 -202 277
-27 163 55 324 200 392 48 23 69 27 137 26 45 -1 99 -9 123 -17 l42 -16 0 53
c0 42 -4 55 -17 61 -35 14 -207 15 -255 1z"/>
<path d="M1700 2394 c-150 -65 -199 -309 -94 -475 33 -53 98 -105 150 -119 54
-15 149 -8 192 14 l32 17 0 242 0 243 -32 32 c-18 17 -50 38 -70 46 -47 20
-132 20 -178 0z"/>
<path d="M1593 1634 c-10 -4 -13 -53 -13 -195 l0 -189 200 0 200 0 0 180 c0
173 -1 180 -22 191 -22 12 -343 24 -365 13z"/>
<path d="M2304 1279 c-42 -10 -42 -10 -31 -40 11 -27 4 -53 -63 -250 -52 -153
-71 -222 -63 -230 7 -7 24 -3 56 12 36 18 44 26 35 36 -24 29 -8 83 119 400
33 84 29 90 -53 72z"/>
<path d="M2728 1277 c-35 -12 -36 -13 -23 -37 12 -22 8 -38 -37 -165 -76 -213
-92 -268 -84 -298 8 -32 32 -34 116 -12 96 25 170 133 170 247 0 37 -4 50 -20
58 -24 13 -50 1 -97 -43 -18 -17 -35 -28 -38 -26 -3 3 18 60 45 126 28 67 50
131 50 142 0 24 -23 26 -82 8z m40 -289 c28 -28 5 -149 -33 -174 -30 -19 -62
-5 -71 32 -11 43 51 154 86 154 3 0 11 -5 18 -12z"/>
<path d="M1358 1191 c-10 -20 -18 -55 -18 -77 l0 -39 21 30 c30 45 40 74 33
101 -8 33 -16 30 -36 -15z"/>
<path d="M2090 1200 c-113 -41 -161 -70 -191 -118 -38 -60 -49 -102 -49 -187
0 -76 25 -146 57 -163 63 -34 114 -23 183 38 l35 31 -32 -16 c-46 -22 -61 -19
-98 18 -45 45 -60 103 -46 180 20 112 75 187 137 187 26 0 74 -36 74 -56 0
-26 17 -14 49 34 28 43 29 48 14 60 -24 17 -69 14 -133 -8z"/>
<path d="M1187 1143 c-31 -13 -36 -19 -31 -37 4 -11 7 -34 6 -50 -1 -34 -42
-156 -53 -156 -12 0 -30 106 -23 135 l7 27 -49 -7 c-62 -9 -62 -10 -57 -38 4
-18 -8 -40 -46 -85 -44 -53 -71 -75 -71 -58 0 3 18 38 40 78 59 109 53 128
-34 98 -36 -12 -45 -18 -33 -23 27 -10 21 -59 -23 -171 -22 -56 -40 -106 -40
-111 0 -5 45 37 101 94 55 57 104 99 109 95 13 -15 50 -137 50 -166 0 -35 17
-37 30 -4 5 14 36 70 70 125 85 140 126 230 113 249 -14 22 -23 23 -66 5z"/>
<path d="M1289 1046 c-40 -9 -45 -13 -32 -24 16 -16 13 -28 -33 -135 -42 -95
-45 -137 -10 -137 13 0 41 7 62 16 37 16 38 17 17 25 -33 12 -29 40 22 154 25
55 45 103 45 107 0 10 -12 9 -71 -6z"/>
<path d="M1455 1046 c-74 -32 -82 -69 -30 -134 19 -24 37 -52 40 -63 9 -27
-12 -59 -38 -59 -34 0 -56 20 -72 65 l-14 40 -15 -37 c-21 -49 -21 -53 12 -78
50 -40 135 -8 185 71 23 35 14 70 -33 130 -17 21 -29 43 -25 49 9 15 41 12 55
-5 12 -14 15 -14 31 1 11 10 19 21 19 26 0 13 -82 9 -115 -6z"/>
<path d="M1618 1031 c-71 -45 -72 -67 -3 -141 54 -57 60 -75 35 -100 -11 -11
-24 -20 -29 -20 -10 0 -47 43 -67 76 -11 17 -13 16 -29 -18 -18 -37 -18 -37 6
-58 32 -27 91 -22 147 14 76 48 79 89 12 170 -23 27 -39 56 -38 65 5 23 33 25
53 5 17 -17 18 -17 31 1 22 29 17 35 -29 35 -30 0 -57 -9 -89 -29z"/>
<path d="M2380 1048 c-47 -13 -54 -22 -39 -46 11 -18 10 -33 -10 -99 -33 -108
-35 -127 -17 -142 18 -15 39 -5 105 48 31 25 43 30 38 18 -26 -70 -13 -90 43
-67 26 11 30 18 30 50 0 41 26 123 59 188 28 54 27 62 -8 62 -37 0 -97 -25
-82 -34 18 -12 13 -40 -20 -102 -79 -149 -122 -136 -63 18 45 118 42 128 -36
106z"/>
<path d="M2153 722 c-36 -14 -41 -20 -37 -38 4 -16 1 -23 -12 -26 -46 -9
-1362 13 -1392 23 -29 9 -38 8 -67 -12 -18 -13 -31 -27 -29 -31 3 -4 90 -7
194 -5 103 1 186 0 183 -3 -2 -3 -19 -10 -36 -16 -23 -8 -31 -17 -30 -31 1
-12 -18 -74 -44 -139 -51 -132 -60 -169 -45 -178 8 -5 57 17 90 40 2 1 -3 12
-10 23 -14 23 -11 35 64 218 l33 82 549 1 c434 0 547 -3 543 -12 -2 -7 -26
-79 -53 -160 -44 -133 -47 -149 -33 -163 14 -14 21 -13 69 8 51 23 53 25 32
36 -16 8 -22 21 -22 44 0 44 69 236 89 245 9 4 126 5 261 2 181 -4 253 -3 275
6 25 10 -21 13 -252 13 -191 1 -283 4 -283 11 0 6 7 24 15 39 22 44 14 48 -52
23z"/>
<path d="M1499 600 c-20 -11 -51 -34 -69 -51 l-31 -32 6 36 c8 43 2 45 -65 20
-57 -21 -57 -21 -36 -36 17 -12 16 -20 -25 -121 -56 -140 -45 -164 58 -121 37
15 37 16 15 31 -30 21 -27 49 11 118 41 74 79 106 107 88 17 -10 22 -6 49 34
43 63 41 66 -20 34z"/>
<path d="M1173 572 c-23 -15 -43 -29 -43 -32 0 -3 10 -10 23 -15 20 -9 22 -16
20 -73 -2 -73 -22 -112 -57 -112 -23 0 -46 33 -46 69 0 44 33 125 63 154 l32
30 -53 -29 c-87 -46 -122 -105 -124 -205 -2 -132 151 -87 250 73 28 45 40 131
22 153 -17 21 -38 18 -87 -13z"/>
<path d="M1646 571 c-30 -24 -33 -29 -17 -34 25 -6 33 -57 16 -112 -22 -74
-47 -92 -79 -59 -35 34 -3 164 47 199 30 21 13 18 -33 -5 -77 -39 -120 -105
-120 -182 0 -89 51 -111 133 -58 111 74 171 186 141 264 -9 25 -48 19 -88 -13z"/>
<path d="M1800 573 c-25 -9 -39 -18 -32 -20 20 -7 14 -59 -17 -141 -54 -139
-52 -153 15 -111 22 13 34 28 34 43 0 22 58 127 85 155 7 7 21 11 30 7 21 -8
15 -52 -15 -118 -24 -53 -26 -98 -5 -98 8 0 30 10 49 22 27 18 32 25 23 39 -8
13 -3 40 22 113 27 78 31 99 21 111 -18 21 -21 20 -89 -30 -34 -25 -63 -45
-66 -45 -3 0 2 14 10 31 17 33 14 60 -7 58 -7 0 -33 -8 -58 -16z"/>
<path d="M2280 551 c-81 -48 -110 -96 -110 -182 0 -48 4 -60 22 -73 31 -22 51
-20 106 8 111 57 190 195 152 267 -14 25 -34 24 -79 -3 -49 -29 -48 -28 -30
-39 9 -5 20 -20 23 -35 9 -34 -18 -125 -43 -148 -19 -17 -20 -17 -40 3 -44 44
-17 179 43 211 14 7 26 17 26 22 0 10 6 13 -70 -31z"/>
</g>
</svg>
