<?xml version="1.0" standalone="no"?>
<!DOCTYPE svg PUBLIC "-//W3C//DTD SVG 20010904//EN"
 "http://www.w3.org/TR/2001/REC-SVG-20010904/DTD/svg10.dtd">
<svg version="1.0" xmlns="http://www.w3.org/2000/svg"
 width="700.000000pt" height="700.000000pt" viewBox="0 0 700.000000 700.000000"
 preserveAspectRatio="xMidYMid meet">
<metadata>
Created by potrace 1.14, written by Peter Selinger 2001-2017
</metadata>
<g transform="translate(0.000000,700.000000) scale(0.100000,-0.100000)"
fill="#000000" stroke="none">
<path d="M1300 4750 l0 -1740 299 0 c165 0 302 -3 304 -7 3 -5 -37 -93 -89
-198 -51 -104 -145 -296 -208 -426 -63 -130 -131 -260 -151 -289 -19 -28 -35
-55 -35 -58 0 -3 -23 -33 -52 -66 -157 -184 -308 -280 -504 -320 -98 -20 -131
-20 -235 2 -154 34 -266 103 -371 227 -70 83 -164 267 -195 380 -3 11 -11 34
-19 52 -8 17 -14 38 -14 47 0 9 -4 16 -10 16 -16 0 -23 -69 -12 -128 6 -31 14
-82 17 -112 10 -93 49 -200 122 -335 30 -56 174 -188 243 -222 120 -60 153
-68 300 -67 122 0 143 2 215 28 263 93 494 285 684 569 170 254 522 883 504
900 -3 4 -44 7 -90 7 -45 0 -83 2 -83 4 0 2 35 77 79 167 117 245 171 359 171
363 0 2 18 42 39 88 76 162 111 240 111 243 0 2 21 47 46 102 25 54 52 112 59
128 7 17 25 56 39 88 14 31 38 83 52 115 14 31 32 71 39 87 120 267 397 822
519 1039 72 128 213 312 350 453 265 276 516 419 855 488 87 18 357 45 448 45
l64 0 -3 33 -3 32 -1742 3 -1743 2 0 -1740z m1050 1150 l0 -190 193 -2 192 -3
0 -180 0 -180 -192 -3 -193 -2 0 -180 0 -180 -175 0 -175 0 -2 178 -3 177
-190 5 -190 5 -3 160 c-1 88 0 170 3 182 5 22 8 23 193 25 l187 3 3 188 2 187
175 0 175 0 0 -190z"/>
<path d="M4250 6220 c-134 -16 -295 -70 -416 -139 -304 -173 -495 -431 -848
-1146 -74 -148 -145 -295 -159 -325 -14 -30 -47 -104 -75 -165 -27 -60 -61
-135 -75 -165 -14 -30 -44 -98 -67 -150 -67 -153 -81 -183 -95 -215 -7 -16
-39 -88 -70 -160 -68 -155 -91 -207 -115 -260 -10 -22 -39 -86 -64 -143 -26
-56 -71 -154 -101 -218 -30 -63 -55 -117 -55 -119 0 -3 333 -5 740 -5 l740 0
0 430 c0 468 0 471 -56 500 -22 12 -69 14 -243 12 -119 -1 -236 -7 -261 -12
-25 -5 -90 -14 -145 -19 -152 -14 -192 -27 -259 -83 -32 -27 -61 -47 -63 -44
-5 4 9 36 100 237 l35 77 49 -9 c27 -5 494 -8 1043 -7 l995 3 3 83 3 84 -43
-7 c-24 -3 -54 -10 -68 -15 -41 -15 -227 -34 -330 -34 -252 0 -439 78 -596
247 -287 309 -308 883 -46 1214 48 59 133 142 189 182 116 83 310 151 434 151
100 0 323 -42 404 -76 19 -8 39 -14 45 -14 7 0 10 44 8 132 l-3 133 -65 17
c-130 34 -319 45 -470 28z"/>
<path d="M4225 5884 c-122 -29 -209 -72 -288 -144 -150 -138 -226 -336 -227
-588 0 -295 132 -565 350 -711 53 -36 83 -51 160 -82 56 -22 318 -19 395 5 74
23 123 48 153 76 l22 21 0 593 0 594 -60 56 c-137 126 -245 177 -390 182 -52
1 -104 1 -115 -2z"/>
<path d="M3824 3951 c-12 -5 -25 -18 -30 -28 -5 -10 -10 -219 -12 -465 l-3
-448 505 0 506 0 0 434 0 435 -27 19 c-72 49 -94 51 -518 57 -240 3 -408 2
-421 -4z"/>
<path d="M6720 3084 c-19 -7 -44 -13 -55 -14 -28 -1 -93 -24 -107 -38 -9 -9
-5 -19 18 -43 26 -27 29 -37 28 -87 -1 -31 -9 -70 -18 -87 -9 -16 -16 -38 -16
-47 0 -9 -4 -19 -9 -22 -5 -3 -12 -22 -16 -42 -3 -20 -10 -44 -15 -53 -5 -9
-18 -45 -30 -81 -12 -36 -25 -72 -30 -80 -4 -9 -11 -30 -14 -48 -4 -17 -12
-34 -17 -37 -5 -4 -9 -14 -9 -23 -1 -9 -9 -35 -20 -57 -11 -22 -19 -46 -20
-53 0 -7 -4 -20 -9 -30 -5 -9 -19 -46 -31 -82 -12 -36 -26 -73 -31 -82 -5 -9
-12 -35 -15 -58 -4 -22 -11 -43 -15 -46 -5 -3 -9 -45 -9 -93 0 -74 3 -91 20
-109 25 -27 79 -29 172 -7 35 8 86 20 113 26 145 32 265 144 350 324 15 33 32
76 37 95 5 19 13 51 18 70 5 19 10 76 10 127 0 84 -2 94 -26 122 -21 26 -33
31 -68 31 -40 0 -92 -19 -124 -44 -8 -6 -50 -45 -95 -86 -79 -71 -82 -73 -85
-48 -2 16 12 60 33 105 49 104 49 104 90 208 20 50 40 99 45 110 5 11 25 61
45 111 36 94 44 151 23 172 -15 15 -73 13 -118 -4z m18 -737 c29 -23 44 -75
39 -139 -14 -191 -88 -318 -184 -318 -24 0 -44 9 -71 34 -37 34 -37 35 -36
113 0 54 5 87 17 108 9 17 17 36 17 43 0 6 5 12 10 12 6 0 10 5 10 11 0 5 18
37 41 70 55 81 110 104 157 66z"/>
<path d="M5635 3078 c-38 -5 -78 -14 -87 -19 -10 -5 -27 -9 -38 -9 -25 0 -26
-26 -3 -52 30 -34 20 -144 -25 -278 -109 -321 -165 -487 -207 -610 -87 -251
-104 -340 -69 -354 10 -4 51 12 101 39 47 25 91 45 98 45 6 0 19 8 28 18 16
17 16 19 -8 32 -23 12 -25 19 -25 79 0 60 36 198 78 301 30 73 127 322 172
445 29 77 66 169 82 205 40 86 47 138 23 157 -20 14 -18 14 -120 1z"/>
<path d="M3232 2837 c-48 -96 -51 -105 -41 -141 6 -21 7 -55 4 -77 -4 -21 -5
-39 -2 -39 9 0 87 109 112 156 16 31 25 63 25 94 0 56 -17 110 -34 110 -7 0
-36 -46 -64 -103z"/>
<path d="M5186 2911 c-3 -4 -28 -11 -55 -15 -28 -4 -53 -11 -56 -16 -3 -6 -13
-10 -22 -10 -8 0 -29 -6 -46 -14 -84 -38 -127 -56 -133 -56 -4 0 -40 -16 -80
-35 -187 -90 -306 -277 -335 -528 -24 -199 22 -421 103 -493 83 -75 232 -106
324 -68 58 24 262 189 250 201 -3 3 -31 -11 -63 -31 -97 -60 -180 -48 -259 35
-48 52 -79 107 -108 194 -10 29 -8 222 3 280 14 73 30 137 41 160 5 11 21 47
35 79 31 70 131 174 176 183 16 3 32 10 35 14 9 16 79 10 120 -10 53 -26 80
-53 109 -111 14 -28 29 -50 33 -50 13 0 48 42 67 80 10 19 32 55 51 80 49 68
52 93 16 119 -25 17 -44 21 -115 21 -47 0 -88 -4 -91 -9z"/>
<path d="M2895 2760 c-3 -5 -15 -10 -26 -10 -11 0 -39 -9 -62 -19 -23 -10 -51
-20 -61 -22 -35 -7 -41 -33 -16 -67 35 -47 32 -140 -9 -267 -18 -55 -39 -113
-46 -130 -7 -16 -23 -52 -34 -79 -24 -55 -32 -53 -50 14 -25 92 -33 148 -34
245 -2 96 -3 100 -25 103 -13 2 -29 -2 -37 -8 -8 -7 -43 -14 -77 -17 -35 -2
-73 -10 -86 -16 -20 -9 -22 -16 -16 -52 10 -72 -10 -118 -89 -204 -94 -102
-196 -195 -204 -187 -8 7 23 69 175 350 51 94 39 141 -35 138 -34 -1 -107 -23
-145 -43 -10 -5 -23 -9 -29 -9 -6 0 -25 -6 -42 -14 -18 -8 -39 -17 -47 -20 -8
-3 4 -4 27 -1 46 6 69 -9 79 -51 15 -58 -35 -227 -139 -467 -94 -217 -80 -235
63 -77 171 189 349 359 385 368 14 3 17 -4 80 -198 31 -94 49 -170 53 -215 4
-69 16 -100 33 -89 5 3 24 38 43 79 19 41 97 179 174 307 158 265 240 418 271
507 32 92 28 122 -20 146 -33 18 -46 19 -54 5z"/>
<path d="M3185 2520 c-54 -23 -129 -40 -174 -40 -39 0 -51 -4 -51 -15 0 -9 6
-18 14 -21 8 -3 20 -19 26 -35 16 -38 1 -95 -60 -234 -22 -50 -90 -215 -109
-265 -25 -66 -27 -132 -5 -151 32 -27 116 -8 284 63 24 10 24 11 -18 23 -62
19 -72 31 -72 85 0 58 32 141 190 489 25 54 31 77 24 89 -13 20 -24 23 -49 12z"/>
<path d="M3567 2524 c-3 -4 -35 -16 -70 -29 -35 -12 -84 -36 -109 -53 -41 -28
-53 -45 -72 -106 -12 -36 14 -93 77 -167 88 -104 109 -141 110 -197 1 -91 -56
-146 -128 -122 -78 26 -132 96 -155 203 -7 31 -16 57 -20 57 -12 0 -52 -97
-71 -169 l-13 -54 39 -34 c127 -111 248 -97 405 45 74 66 120 142 120 196 0
53 -47 146 -120 236 -40 50 -60 84 -60 102 0 58 85 63 142 9 18 -17 38 -31 45
-31 19 0 86 88 79 105 -4 12 -25 15 -99 15 -52 0 -96 -3 -100 -6z"/>
<path d="M4026 2521 c-3 -4 -19 -11 -35 -14 -44 -9 -177 -94 -211 -135 -32
-39 -40 -94 -19 -135 6 -12 58 -69 114 -127 116 -118 137 -159 115 -224 -21
-65 -92 -95 -145 -60 -37 24 -92 103 -116 168 -18 45 -24 54 -35 45 -8 -6 -14
-17 -14 -24 0 -7 -13 -40 -30 -73 -16 -34 -30 -70 -30 -81 0 -19 61 -76 107
-100 32 -16 126 -13 175 6 61 24 187 100 225 136 46 43 68 113 53 169 -18 64
-33 88 -111 180 -40 45 -81 102 -91 126 -18 40 -18 45 -4 68 26 39 84 34 127
-11 19 -19 39 -35 44 -35 6 0 25 23 43 51 46 69 36 79 -74 79 -45 0 -85 -4
-88 -9z"/>
<path d="M6216 2521 c-4 -5 -27 -13 -51 -17 -25 -3 -48 -10 -51 -15 -3 -5 -16
-9 -30 -9 -30 0 -31 -20 -3 -46 18 -16 20 -26 15 -65 -6 -47 -15 -70 -63 -164
-77 -153 -136 -243 -175 -264 -24 -14 -28 -14 -47 3 -31 28 -28 93 7 169 16
34 39 91 52 127 13 36 27 70 30 75 4 6 11 26 15 45 4 19 11 40 16 45 4 6 11
29 15 51 9 59 -8 69 -92 55 -36 -7 -73 -16 -82 -21 -10 -6 -39 -13 -67 -18
-59 -9 -67 -26 -30 -70 37 -44 41 -82 17 -155 -11 -34 -27 -89 -37 -122 -9
-33 -29 -91 -43 -130 -18 -48 -27 -90 -27 -134 0 -58 3 -65 27 -84 25 -19 31
-19 70 -8 43 13 115 64 221 155 31 27 60 46 64 42 4 -3 -1 -28 -10 -54 -20
-55 -22 -133 -5 -150 7 -7 24 -12 39 -12 30 0 143 53 155 72 4 7 8 58 9 114 0
57 6 108 12 115 6 8 14 30 18 49 4 19 11 40 14 45 4 6 16 33 26 60 10 28 40
97 67 154 34 70 48 113 46 135 -3 30 -4 31 -60 34 -31 2 -59 -2 -62 -7z"/>
<path d="M5255 1695 c-27 -13 -68 -29 -90 -35 -58 -17 -70 -29 -45 -47 27 -19
26 -59 -2 -77 -20 -13 -141 -13 -908 -6 -487 5 -1240 12 -1675 15 -480 4 -812
11 -845 17 -30 6 -70 19 -90 29 -19 11 -39 19 -45 19 -15 0 -178 -115 -183
-128 -4 -13 -102 -12 2319 -12 871 0 1366 -3 1383 -10 38 -14 32 -62 -24 -185
-5 -11 -18 -54 -30 -95 -12 -41 -32 -104 -45 -140 -12 -36 -39 -110 -58 -165
-20 -55 -41 -123 -48 -151 -11 -47 -10 -55 7 -85 28 -48 74 -51 151 -10 32 16
75 33 95 37 20 3 45 12 54 18 20 15 11 36 -14 36 -28 0 -61 29 -78 68 -22 52
-12 119 36 241 22 55 40 107 40 114 0 7 4 17 8 23 5 5 24 54 42 109 42 131 63
170 98 184 45 19 1128 -3 1176 -23 31 -13 39 -13 63 -1 16 8 36 15 45 15 9 0
19 4 23 9 3 5 18 12 34 16 16 3 35 13 42 21 10 12 -81 14 -685 14 l-696 0 0
24 c0 14 14 54 30 89 17 36 30 72 30 81 0 24 -55 19 -115 -9z"/>
<path d="M2290 1437 c-14 -7 -49 -22 -79 -33 -61 -21 -68 -32 -51 -74 10 -25
8 -41 -20 -122 -17 -51 -35 -102 -40 -113 -5 -11 -20 -51 -34 -90 -13 -38 -50
-132 -80 -207 -42 -101 -56 -149 -56 -185 0 -75 33 -94 87 -49 15 13 57 38 93
56 36 18 67 34 70 37 2 2 -10 17 -28 34 -20 18 -32 40 -32 55 0 27 25 117 41
146 5 10 9 23 9 29 0 6 6 25 14 42 40 88 68 153 92 210 14 34 32 76 40 94 8
17 14 34 14 37 0 3 12 30 26 61 14 30 24 62 20 70 -7 18 -52 20 -86 2z"/>
<path d="M3617 1396 c-90 -45 -152 -90 -225 -164 -24 -24 -45 -42 -48 -39 -3
3 2 32 11 66 28 110 2 122 -140 61 -39 -16 -79 -30 -90 -30 -11 0 -31 -7 -45
-14 l-24 -14 37 -22 c30 -18 37 -28 37 -53 0 -34 -33 -130 -98 -287 -88 -214
-102 -285 -60 -314 12 -9 35 -16 50 -16 34 0 238 78 238 91 0 5 -16 19 -35 30
-79 47 -76 100 18 299 30 64 87 139 147 193 59 53 95 60 137 27 25 -19 27 -19
45 -3 10 9 28 33 40 52 12 20 43 65 70 100 43 57 51 81 29 81 -4 0 -46 -20
-94 -44z"/>
<path d="M2824 1332 c-49 -32 -104 -67 -121 -77 -37 -22 -43 -45 -13 -45 11 0
36 -6 55 -14 50 -21 62 -70 46 -189 -17 -132 -39 -194 -81 -239 -29 -30 -44
-38 -71 -38 -83 1 -127 100 -108 240 11 74 56 199 94 259 23 37 86 93 118 104
7 2 9 8 5 12 -7 7 -109 -39 -193 -89 -134 -79 -212 -210 -236 -397 -17 -127
-2 -186 59 -240 45 -39 50 -41 99 -37 153 13 356 187 476 408 47 86 67 159 67
242 0 75 -15 117 -52 142 -35 25 -50 20 -144 -42z"/>
<path d="M4075 1383 c-29 -7 -145 -86 -179 -122 l-30 -31 32 0 c39 0 57 -25
73 -98 14 -60 5 -125 -32 -236 -24 -71 -53 -111 -92 -127 -67 -28 -137 54
-137 162 0 60 27 163 58 225 26 50 114 156 139 165 16 7 15 8 -4 8 -24 1 -149
-63 -221 -111 -89 -61 -170 -196 -191 -321 -25 -142 30 -273 122 -291 75 -15
233 79 377 223 147 147 203 258 202 401 0 125 -37 173 -117 153z"/>
<path d="M5800 1329 c-25 -18 -73 -47 -108 -65 -57 -29 -61 -34 -43 -43 11 -6
26 -11 34 -11 8 0 22 -9 33 -21 29 -33 27 -210 -4 -301 -29 -85 -77 -156 -109
-164 -52 -13 -118 65 -129 152 -9 75 12 194 48 272 28 59 59 91 160 163 76 55
-91 -16 -221 -93 -54 -32 -130 -108 -153 -153 -59 -113 -77 -313 -35 -395 26
-54 72 -80 137 -80 154 1 397 182 497 370 47 87 63 150 63 243 0 71 -4 89 -23
118 -19 28 -30 35 -63 37 -32 2 -49 -4 -84 -29z"/>
<path d="M4343 1316 c-50 -17 -94 -34 -98 -37 -3 -4 6 -19 21 -34 25 -25 26
-31 21 -93 -5 -58 -58 -214 -107 -317 -5 -11 -16 -40 -24 -65 -38 -114 -43
-190 -13 -190 7 0 53 24 102 53 l90 53 1 54 c1 69 17 104 121 262 86 132 128
174 163 163 26 -8 34 -43 27 -114 -6 -52 -15 -84 -51 -166 -49 -111 -67 -176
-64 -227 3 -51 4 -53 34 -56 23 -2 52 11 124 59 l94 61 -22 18 c-34 28 -29 95
14 215 69 194 82 231 95 283 12 48 11 54 -8 80 -39 53 -68 45 -211 -63 -52
-38 -111 -83 -133 -99 -21 -16 -42 -26 -46 -22 -4 4 5 31 20 60 34 64 44 120
27 141 -18 22 -72 16 -177 -19z"/>
</g>
</svg>
